<?xml version="1.0" encoding="UTF-8" standalone="no"?>
<svg
   width="100pt"
   height="100pt"
   version="1.1"
   viewBox="0 0 100 100"
   id="svg113"
   sodipodi:docname="Idea.svg"
   inkscape:version="1.1.1 (c3084ef, 2021-09-22)"
   xmlns:inkscape="http://www.inkscape.org/namespaces/inkscape"
   xmlns:sodipodi="http://sodipodi.sourceforge.net/DTD/sodipodi-0.dtd"
   xmlns="http://www.w3.org/2000/svg"
   xmlns:svg="http://www.w3.org/2000/svg">
  <defs
     id="defs117" />
  <sodipodi:namedview
     id="namedview115"
     pagecolor="#ffffff"
     bordercolor="#666666"
     borderopacity="1.0"
     inkscape:pageshadow="2"
     inkscape:pageopacity="0.0"
     inkscape:pagecheckerboard="0"
     inkscape:document-units="pt"
     showgrid="false"
     inkscape:zoom="0.31974575"
     inkscape:cx="420.64671"
     inkscape:cy="-114.1532"
     inkscape:window-width="1280"
     inkscape:window-height="755"
     inkscape:window-x="2111"
     inkscape:window-y="486"
     inkscape:window-maximized="0"
     inkscape:current-layer="svg113"
     width="200pt" />
  <g
     fill="#c362dd"
     id="g111"
     transform="matrix(0.16470167,0,0,0.16860402,-10.073242,-15.336447)">
    <path
       d="m 198.41,272.41 h 14.801 c 0,-4.0859 3.3164,-7.3984 7.3984,-7.3984 v -14.801 c -12.242,0 -22.199,9.9609 -22.199,22.199 z"
       id="path97" />
    <path
       d="m 265.01,287.2 c 0,-12.238 -9.9609,-22.199 -22.199,-22.199 v 14.801 c 4.0859,0 7.3984,3.3164 7.3984,7.3984 z"
       id="path99" />
    <path
       d="m 191.01,316.8 v 14.801 c 12.238,0 22.199,-9.9609 22.199,-22.199 l -14.797,-0.004 c 0,4.0859 -3.3164,7.4023 -7.4023,7.4023 z"
       id="path101" />
    <path
       d="m 546.2,568.39 c 12.238,0 22.199,-9.9609 22.199,-22.199 0,-12.238 -9.9609,-22.199 -22.199,-22.199 -12.238,0 -22.199,9.9609 -22.199,22.199 0,12.238 9.9609,22.199 22.199,22.199 z m 0,-29.602 c 4.0859,0 7.3984,3.3164 7.3984,7.3984 0,4.0859 -3.3164,7.3984 -7.3984,7.3984 -4.0859,0 -7.3984,-3.3164 -7.3984,-7.3984 -0.004,-4.082 3.3125,-7.3984 7.3984,-7.3984 z"
       id="path103" />
    <path
       d="m 546.2,398.2 c 12.238,0 22.199,-9.9609 22.199,-22.199 0,-12.2381 -9.9609,-22.199 -22.199,-22.199 -12.238,0 -22.199,9.9609 -22.199,22.199 0,12.242 9.9609,22.199 22.199,22.199 z m 0,-29.598 c 4.0859,0 7.3984,3.3164 7.3984,7.3984 0,4.0859 -3.3164,7.3984 -7.3984,7.3984 -4.0859,0 -7.3984,-3.3164 -7.3984,-7.3984 -0.004,-4.082 3.3125,-7.3984 7.3984,-7.3984 z"
       id="path105" />
    <path
       d="m 546.2,228.01 c 12.238,0 22.199,-9.9609 22.199,-22.199 0,-12.238 -9.9609,-22.199 -22.199,-22.199 -12.238,0 -22.199,9.9609 -22.199,22.199 0,12.238 9.9609,22.199 22.199,22.199 z m 0,-29.598 c 4.0859,0 7.3984,3.3164 7.3984,7.3984 0,4.0859 -3.3164,7.3984 -7.3984,7.3984 -4.0859,0 -7.3984,-3.3164 -7.3984,-7.3984 -0.004,-4.0859 3.3125,-7.3984 7.3984,-7.3984 z"
       id="path107" />
    <path
       d="m 487.51,383.4 c 3.6641,29.156 28.555,51.797 58.688,51.797 32.641,0 59.199,-26.559 59.199,-59.199 0,-32.64 -26.559,-59.199 -59.199,-59.199 -30.133,0 -55.023,22.645 -58.688,51.797 l -79.797,0.004 c 1.3984,-4.8477 2.5312,-9.7812 3.3828,-14.801 h 24.105 c 12.238,0 22.199,-9.9609 22.199,-22.199 v -29.598 c 0,-4.0859 3.3164,-7.3984 7.3984,-7.3984 h 8.7617 c 3.0625,8.5898 11.203,14.801 20.836,14.801 12.238,0 22.199,-9.9609 22.199,-22.199 0,-12.2381 -9.9609,-22.199 -22.199,-22.199 -9.6328,0 -17.773,6.207 -20.836,14.801 l -8.7617,-0.004 c -12.238,0 -22.199,9.9609 -22.199,22.199 v 29.598 c 0,4.0859 -3.3164,7.3984 -7.3984,7.3984 h -22.43 c 0.13281,-2.4531 0.23047,-4.918 0.23047,-7.3984 0,-26.848 -8.207,-52.043 -22.199,-73.207 v -37.785 c 0,-4.0859 3.3164,-7.3984 7.3984,-7.3984 h 89.309 c 3.6641,29.156 28.555,51.797 58.688,51.797 32.641,0 59.199,-26.559 59.199,-59.199 0,-32.64 -26.559,-59.199 -59.199,-59.199 -30.133,0 -55.023,22.645 -58.688,51.797 l -89.309,0.004 c -12.238,0 -22.199,9.9609 -22.199,22.199 v 19.211 c -20.27,-21.281 -47.441,-36.059 -78.258,-40.211 -6.3711,-0.85938 -12.883,1.082 -17.75,5.3281 -2.2656,1.9766 -4.0273,4.3945 -5.3047,7.0391 -8.082,-8.3516 -19.375,-13.566 -31.879,-13.566 -16.02,0 -30.605,8.5703 -38.465,22.223 -23.805,0.77344 -42.934,20.383 -42.934,44.375 0,5.5352 1.0859,11.055 3.2031,16.281 -11.254,8.293 -18.004,21.352 -18.004,35.516 0,14.562 7.0742,27.469 17.938,35.562 -2.0273,5.1484 -3.1367,10.641 -3.1367,16.234 0,22.223 16.426,40.633 37.77,43.852 2.1758,11.438 8.8555,23.789 12.688,30.145 h -6.0586 c -12.238,0 -22.199,9.9609 -22.199,22.199 0,10.234 6.9922,18.789 16.426,21.34 -1.0273,2.5625 -1.625,5.3359 -1.625,8.2617 0,10.234 6.9922,18.789 16.426,21.34 -1.0273,2.5586 -1.6289,5.3359 -1.6289,8.2578 0,9.6328 6.207,17.773 14.801,20.836 v 8.7617 c 0,28.555 23.242,51.797 51.797,51.797 28.555,0 51.797,-23.242 51.797,-51.797 v -8.7617 c 8.5898,-3.0625 14.801,-11.203 14.801,-20.836 0,-2.9219 -0.59766,-5.6992 -1.6289,-8.2578 9.4375,-2.5625 16.43,-11.109 16.43,-21.34 0,-2.9219 -0.59766,-5.6992 -1.6289,-8.2578 9.4336,-2.5625 16.426,-11.109 16.426,-21.344 0,-12.238 -9.9609,-22.199 -22.199,-22.199 h 51.797 c 4.0859,0 7.3984,3.3164 7.3984,7.3984 v 81.398 c 0,12.238 9.9609,22.199 22.199,22.199 h 52.309 c 3.6641,29.156 28.555,51.797 58.688,51.797 32.641,0 59.199,-26.559 59.199,-59.199 0,-32.64 -26.559,-59.199 -59.199,-59.199 -30.133,0 -55.023,22.645 -58.688,51.797 l -52.305,0.004 c -4.0859,0 -7.3984,-3.3164 -7.3984,-7.3984 v -81.395 c 0,-12.238 -9.9609,-22.199 -22.199,-22.199 h -33.715 c 4.8164,-4.6094 9.2422,-9.5664 13.289,-14.801 h 50.023 c 4.0859,0 7.3984,3.3164 7.3984,7.3984 v 29.598 c 0,12.238 9.9609,22.199 22.199,22.199 h 8.7617 c 3.0625,8.5898 11.203,14.801 20.836,14.801 12.238,0 22.199,-9.9609 22.199,-22.199 0,-12.2381 -9.9609,-22.199 -22.199,-22.199 -9.6328,0 -17.773,6.207 -20.836,14.801 h -8.7617 c -4.0859,0 -7.3984,-3.3164 -7.3984,-7.3984 v -29.598 c 0,-12.238 -9.9609,-22.199 -22.199,-22.199 h -40.098 c 2.7617,-4.7734 5.2148,-9.707 7.3711,-14.801 z m 58.688,-51.801 c 24.484,0 44.398,19.914 44.398,44.398 0,24.484 -19.914,44.398 -44.398,44.398 -24.484,0 -44.398,-19.914 -44.398,-44.398 0,-24.484 19.91,-44.398 44.398,-44.398 z m -51.797,-51.797 c 4.0859,0 7.3984,3.3164 7.3984,7.3984 0,4.0859 -3.3164,7.3984 -7.3984,7.3984 -4.0859,0 -7.3984,-3.3164 -7.3984,-7.3984 -0.004,-4.082 3.3125,-7.3984 7.3984,-7.3984 z m 51.797,-118.39 c 24.484,0 44.398,19.914 44.398,44.398 0,24.484 -19.914,44.398 -44.398,44.398 -24.484,0 -44.398,-19.914 -44.398,-44.398 0,-24.484 19.91,-44.398 44.398,-44.398 z m 0,340.39 c 24.484,0 44.398,19.914 44.398,44.398 0,24.484 -19.914,44.398 -44.398,44.398 -24.484,0 -44.398,-19.914 -44.398,-44.398 0,-24.488 19.91,-44.398 44.398,-44.398 z m -51.797,-44.398 c 4.0859,0 7.3984,3.3164 7.3984,7.3984 0,4.0859 -3.3164,7.3984 -7.3984,7.3984 -4.0859,0 -7.3984,-3.3164 -7.3984,-7.3984 -0.004,-4.082 3.3125,-7.3984 7.3984,-7.3984 z m -207.2,14.801 v -151.44 l 13.859,-9.2344 14.844,14.844 c 1.1406,1.1406 2.3398,2.2109 3.5977,3.2109 l -23.766,142.62 z m -81.395,-14.801 h 22.199 v -17.055 l -1.2422,-1.8633 c -3.0469,-4.5742 -9.9375,-16.48 -12.504,-26.305 20.449,-3.9648 35.945,-21.98 35.945,-43.574 h -14.801 c 0,16.324 -13.273,29.598 -29.598,29.598 -16.324,0 -29.598,-13.273 -29.598,-29.598 0,-3.2266 0.58594,-6.3867 1.5898,-9.4062 4.1719,1.3047 8.6133,2.0078 13.207,2.0078 24.484,0 44.398,-19.914 44.398,-44.398 h -14.801 c 0,16.324 -13.273,29.598 -29.598,29.598 -16.324,0 -29.598,-13.273 -29.598,-29.598 0,-11.039 6.1992,-21.09 16.191,-26.211 l 7.043,-3.6172 -4.0938,-6.7852 c -2.8828,-4.7812 -4.3398,-9.8867 -4.3398,-15.184 0,-16.324 13.273,-29.598 29.598,-29.598 0.27344,0.008 0.54688,0.0586 0.8125,0.0977 0.51172,0.0742 1.0352,0.14063 1.5625,0.17578 l 5.3047,0.42188 2.0859,-4.8906 c 4.6719,-10.941 15.363,-18.008 27.234,-18.008 16.324,0 29.598,13.273 29.598,29.598 v 229.39 h -51.797 l -14.801,0.004 c -4.0859,0 -7.3984,-3.3164 -7.3984,-7.3984 0,-4.0859 3.3125,-7.4023 7.3984,-7.4023 z m 73.996,133.2 c -20.402,0 -37,-16.598 -37,-37 v -7.3984 h 73.996 v 7.3984 c 0.004,20.402 -16.594,37 -36.996,37 z M 324.2,531.405 h -88.797 c -4.0859,0 -7.3984,-3.3164 -7.3984,-7.3984 0,-4.0859 3.3164,-7.3984 7.3984,-7.3984 H 324.2 c 4.0859,0 7.3984,3.3164 7.3984,7.3984 0,4.0859 -3.3125,7.3984 -7.3984,7.3984 z m 14.801,-29.598 h -118.4 c -4.0859,0 -7.3984,-3.3164 -7.3984,-7.3984 0,-4.0859 3.3164,-7.3984 7.3984,-7.3984 h 118.39 c 4.0859,0 7.3984,3.3164 7.3984,7.3984 0.004,4.082 -3.3125,7.3984 -7.3945,7.3984 z m -3.4922,-65.738 -3.9102,2.0859 v 19.254 h 22.199 c 4.0859,0 7.3984,3.3164 7.3984,7.3984 0,4.0859 -3.3164,7.3984 -7.3984,7.3984 h -43.066 l 22.547,-135.26 c 4.2266,1.3477 8.6523,2.0664 13.121,2.0664 12.238,0 22.199,-9.9609 22.199,-22.199 0,-12.238 -9.9609,-22.199 -22.199,-22.199 h -2.2656 c -10.508,0 -19.445,7.2461 -21.672,17.398 l -19.527,-19.52 -15.734,10.488 v -81.344 c 0,-2.1523 0.89453,-4.1289 2.5234,-5.5508 1.6719,-1.4648 3.8398,-2.1094 6.0312,-1.7969 58.406,7.8594 102.44,58.293 102.44,117.32 0,43.762 -24.02,83.789 -62.688,104.46 z m 0.25,-113.95 1.082,-6.5273 c 0.58984,-3.5742 3.6602,-6.1797 7.293,-6.1797 h 2.2656 c 4.0859,0 7.3984,3.3164 7.3984,7.3984 0,4.0859 -3.3164,7.3984 -7.3984,7.3984 -3.6641,0.004 -7.2812,-0.72656 -10.641,-2.0898 z"
       id="path109" />
  </g>
</svg>
