<?xml version="1.0" encoding="UTF-8" standalone="no"?>
<svg
   width="100pt"
   height="100pt"
   version="1.1"
   viewBox="0 0 100 100"
   id="svg4"
   sodipodi:docname="NNet.svg"
   inkscape:version="1.1.1 (c3084ef, 2021-09-22)"
   xmlns:inkscape="http://www.inkscape.org/namespaces/inkscape"
   xmlns:sodipodi="http://sodipodi.sourceforge.net/DTD/sodipodi-0.dtd"
   xmlns="http://www.w3.org/2000/svg"
   xmlns:svg="http://www.w3.org/2000/svg">
  <defs
     id="defs8" />
  <sodipodi:namedview
     id="namedview6"
     pagecolor="#ffffff"
     bordercolor="#666666"
     borderopacity="1.0"
     inkscape:pageshadow="2"
     inkscape:pageopacity="0.0"
     inkscape:pagecheckerboard="0"
     inkscape:document-units="pt"
     showgrid="false"
     inkscape:zoom="0.5255984"
     inkscape:cx="-136.03542"
     inkscape:cy="263.50917"
     inkscape:window-width="1280"
     inkscape:window-height="755"
     inkscape:window-x="2204"
     inkscape:window-y="301"
     inkscape:window-maximized="0"
     inkscape:current-layer="svg4"
     fit-margin-top="0"
     fit-margin-left="0"
     fit-margin-right="0"
     fit-margin-bottom="0"
     width="100pt" />
  <path
     d="m 44.64997,81.796012 c -1.752426,1.38374 -3.96581,2.209394 -6.37144,2.209394 -5.145855,0 -9.409242,-3.777049 -10.168997,-8.709801 -4.961263,-0.852111 -8.694853,-5.616379 -8.694853,-11.28786 0,-1.623418 0.305538,-3.201367 0.886744,-4.649613 -0.716318,-0.486145 -1.390534,-1.042218 -2.013148,-1.664834 -2.607255,-2.607253 -4.018827,-6.087596 -4.018827,-9.701082 0,-3.205361 1.101966,-5.79228 3.446448,-8.335052 -0.01087,-0.07808 0,-1.954747 0.364614,-3.664411 1.446213,-6.383781 6.848742,-11.265435 13.49464,-11.931676 0.763839,-3.952948 4.242876,-6.937737 8.418659,-6.937737 2.804886,0 5.295338,1.347085 6.859691,3.428891 2.240677,0.0015 4.145885,1.432633 4.851931,3.4308 h 10.875049 c 0.706126,-1.998202 2.611943,-3.42941 4.851926,-3.42941 2.841564,0 5.144644,2.303079 5.144644,5.144638 0,1.437382 -0.589353,2.736923 -1.539248,3.669801 l 7.144241,15.308768 c 0.406688,-0.07537 0.826307,-0.114742 1.254746,-0.114742 3.788689,0 6.859695,3.071693 6.859695,6.859686 0,3.788697 -3.071006,6.859692 -6.859695,6.859692 -0.329978,0 -0.653849,-0.02309 -0.971606,-0.06791 l -3.464866,8.316107 c 1.653298,1.252023 2.721973,3.237345 2.721973,5.471763 0,3.787996 -3.071695,6.8597 -6.859692,6.8597 -2.685994,0 -5.0108,-1.543308 -6.137308,-3.7913 l -12.769473,2.736221 c -0.323879,2.529906 -2.485066,4.484655 -5.102402,4.484655 -0.788295,0 -1.535834,-0.177202 -2.203307,-0.494298 z M 43.423066,21.86387 c -0.909827,-0.814767 -2.112228,-1.309745 -3.429413,-1.309745 -2.321329,0 -4.283724,1.537205 -4.92389,3.648768 3.802944,0.877916 6.638942,4.285637 6.638942,8.355389 0,0.947166 -0.767919,1.71509 -1.715088,1.71509 -0.947162,0 -1.715087,-0.767924 -1.715087,-1.71509 0,-2.841562 -2.303078,-5.144639 -5.144638,-5.144639 -6.2011,0 -11.303503,4.701231 -11.938455,10.733901 3.290355,-0.846003 6.874641,-0.02377 9.485199,2.349313 1.233701,-0.687115 2.655406,-1.078881 4.167613,-1.078881 0.947164,0 1.715087,0.767924 1.715087,1.715086 0,0.947168 -0.767923,1.715092 -1.715087,1.715092 -2.840868,0 -5.144637,2.303073 -5.144637,5.144638 0,0.947162 -0.767925,1.715087 -1.715091,1.715087 -0.947163,0 -1.714408,-0.767925 -1.714408,-1.715087 0,-1.969003 0.663353,-3.783307 1.77954,-5.230852 -2.203309,-1.768764 -5.287172,-2.007764 -7.73886,-0.57984 -0.13172,0.07673 -0.753654,0.583242 -0.908472,0.788295 -1.191605,1.57454 -1.706939,3.125232 -1.706939,5.022447 0,2.712415 1.056479,5.318458 3.013992,7.275811 0.968889,0.968891 2.098666,1.721195 3.335723,2.2332 1.247952,0.516033 2.58831,0.780145 3.939389,0.780145 0.947166,0 1.71509,0.767923 1.71509,1.715088 0,0.947164 -0.767924,1.715096 -1.71509,1.715096 -1.571148,0 -3.132182,-0.268204 -4.610846,-0.795081 -0.349668,0.9655 -0.53367,2.011763 -0.53367,3.091337 0,3.845009 2.322024,7.002922 5.358435,7.799348 0.853476,-3.756707 4.175088,-6.575851 8.169404,-6.663453 0.269554,-1.683178 1.072102,-3.30861 2.40893,-4.644916 0.669476,-0.66947 1.755208,-0.66947 2.425269,0 0.669477,0.669479 0.669477,1.7559 0,2.425267 -2.009148,2.009159 -2.009148,4.997942 0,7.006926 0.669477,0.66947 0.669477,1.755199 0,2.425266 -0.67015,0.669471 -1.755898,0.669471 -2.425269,0 -1.107405,-1.107408 -1.848892,-2.413108 -2.223641,-3.785217 -2.838089,0.0032 -5.138382,2.305857 -5.138382,5.144643 0,3.788689 3.070999,6.859692 6.859691,6.859692 1.45843,0 2.810276,-0.454912 3.921666,-1.230981 -0.315046,-0.666739 -0.491575,-1.412259 -0.491575,-2.198431 0,-2.239983 1.431279,-4.145888 3.429412,-4.851934 V 56.274271 c -1.9982,-0.706133 -3.429412,-2.61125 -3.429412,-4.851933 0,-2.239976 1.431279,-4.145884 3.429412,-4.851927 v -1.197704 c -1.820387,1.629533 -4.224626,2.620119 -6.859694,2.620119 -0.947163,0 -1.715086,-0.767924 -1.715086,-1.71509 0,-0.947162 0.767923,-1.715087 1.715086,-1.715087 3.788692,0 6.859694,-3.071003 6.859694,-6.859691 V 30.55073 c -1.9982,-0.706131 -3.429412,-2.611949 -3.429412,-4.851932 0,-1.52361 0.662,-2.893186 1.714409,-3.834751 z m 5.145333,8.68686 v 16.019681 c 0.404661,0.143263 0.785565,0.335413 1.136608,0.569649 l 4.523938,-3.392907 c -0.332708,-0.80594 -0.516025,-1.688601 -0.516025,-2.614037 0,-1.416333 0.429116,-2.732929 1.164429,-3.825367 l -6.082205,-6.843357 c -0.07469,0.03053 -0.150734,0.05907 -0.226779,0.08623 z m 0,25.723199 V 71.882872 L 56.345324,61.21485 c -0.578477,-0.831744 -0.917284,-1.842809 -0.917284,-2.933163 0,-0.205052 0.01154,-0.407389 0.03527,-0.606326 l -5.048169,-2.540687 c -0.522805,0.501082 -1.150182,0.893527 -1.846806,1.139319 z m 3.136874,-28.860597 c -0.09505,0.268198 -0.21115,0.526197 -0.346952,0.771312 l 6.082206,6.843354 c 0.939012,-0.482745 2.003594,-0.755025 3.132188,-0.755025 0.384969,0 0.763163,0.03122 1.130489,0.09234 l 2.192357,-4.931365 C 63.3096,28.879904 62.854688,28.189381 62.580386,27.413324 Z m -0.46781,47.038387 12.770866,-2.736232 c 0.06178,-1.506645 0.609042,-2.888315 1.489663,-3.991703 L 62.092218,63.19776 c -0.480031,0.148015 -0.990611,0.228133 -1.519543,0.228133 -0.50175,0 -0.987227,-0.07197 -1.445531,-0.205729 l -8.030172,11.014958 c 0.04825,0.07134 0.09573,0.143262 0.140547,0.216597 z m 0.526201,-24.570787 c 0.152091,0.486146 0.234255,1.003517 0.234255,1.53924 0,0.21998 -0.01353,0.436576 -0.04076,0.649096 l 5.022965,2.527829 c 0.927476,-0.904395 2.194443,-1.461837 3.592451,-1.461837 1.611881,0 3.050669,0.741428 3.994322,1.901733 l 8.042513,-2.944118 c -0.02102,-0.221342 -0.03256,-0.445406 -0.03256,-0.672862 0,-0.5778 0.07197,-1.139319 0.206413,-1.675702 l -7.201238,-3.927917 c -1.251347,1.338251 -3.032931,2.174101 -5.009407,2.174101 -1.62138,0 -3.110979,-0.562192 -4.284938,-1.50256 z m 20.070661,15.327189 3.464873,-8.316098 C 74.715953,56.450001 74.205365,55.917009 73.788485,55.31409 l -8.071031,2.954198 v 0.01154 c 0,1.062592 -0.321841,2.049819 -0.873153,2.869374 l 3.393434,4.510372 c 0.808647,-0.334731 1.694722,-0.520094 2.624984,-0.520094 0.329301,0 0.653849,0.02373 0.971606,0.06855 z m 2.593002,-18.473279 c 0.202345,-0.216593 0.418241,-0.419613 0.647075,-0.607683 L 67.930169,30.817694 c -0.164313,0.0156 -0.329978,0.02377 -0.497698,0.02377 -0.135786,0 -0.270226,-0.0054 -0.403305,-0.0156 l -2.191656,4.932059 c 1.581333,1.256787 2.595088,3.196671 2.595088,5.373386 0,0.5778 -0.07134,1.139316 -0.206413,1.6757 z M 60.572882,44.560736 c 1.894265,0 3.42942,-1.535154 3.42942,-3.429409 0,-1.89426 -1.535155,-3.430109 -3.42942,-3.430109 -1.894257,0 -3.430104,1.535829 -3.430104,3.430109 0,1.894255 1.535832,3.429409 3.430104,3.429409 z m 6.8597,-17.148795 c 0.947164,0 1.715088,-0.767924 1.715088,-1.715091 0,-0.947162 -0.767924,-1.715086 -1.715088,-1.715086 -0.947164,0 -1.715088,0.767924 -1.715088,1.715086 0,0.947167 0.767924,1.715091 1.715088,1.715091 z m 12.004152,27.438774 c 1.894265,0 3.430113,-1.535832 3.430113,-3.430113 0,-1.894273 -1.535832,-3.429411 -3.430113,-3.429411 -1.894256,0 -3.429412,1.535152 -3.429412,3.429411 0,1.894265 1.535156,3.430113 3.429412,3.430113 z M 60.572365,59.99535 c 0.947164,0 1.715088,-0.767924 1.715088,-1.715088 0,-0.947164 -0.767924,-1.714411 -1.715088,-1.714411 -0.947164,0 -1.715088,0.767247 -1.715088,1.714411 0,0.947164 0.767924,1.715088 1.715088,1.715088 z m 10.289796,15.43444 c 1.89374,0 3.429412,-1.535832 3.429412,-3.429412 0,-1.894265 -1.535823,-3.430105 -3.429412,-3.430105 -1.894249,0 -3.430104,1.535824 -3.430104,3.430105 0,1.893732 1.535832,3.429412 3.430104,3.429412 z M 46.852805,53.136009 c 0.947167,0 1.715092,-0.767924 1.715092,-1.715097 0,-0.947156 -0.767925,-1.714405 -1.715092,-1.714405 -0.947162,0 -1.715086,0.767249 -1.715086,1.714405 0,0.947173 0.767924,1.715097 1.715086,1.715097 z m 0,25.724929 c 0.947167,0 1.715092,-0.767924 1.715092,-1.715088 0,-0.947165 -0.767925,-1.715088 -1.715092,-1.715088 -0.947162,0 -1.715086,0.767923 -1.715086,1.715088 0,0.947164 0.767924,1.715088 1.715086,1.715088 z m 0,-51.448129 c 0.947167,0 1.715092,-0.767924 1.715092,-1.715087 0,-0.947166 -0.767925,-1.71509 -1.715092,-1.71509 -0.947162,0 -1.715086,0.767924 -1.715086,1.71509 0,0.947163 0.767924,1.715087 1.715086,1.715087 z"
     fill="#c362dd"
     id="path2"
     style="stroke-width:0.173817" />
</svg>
