<?xml version="1.0" encoding="UTF-8" standalone="no"?>
<svg
   width="100pt"
   height="100pt"
   version="1.1"
   viewBox="0 0 100 100"
   id="svg40"
   sodipodi:docname="QChip.svg"
   inkscape:version="1.1.1 (c3084ef, 2021-09-22)"
   xmlns:inkscape="http://www.inkscape.org/namespaces/inkscape"
   xmlns:sodipodi="http://sodipodi.sourceforge.net/DTD/sodipodi-0.dtd"
   xmlns="http://www.w3.org/2000/svg"
   xmlns:svg="http://www.w3.org/2000/svg">
  <defs
     id="defs44" />
  <sodipodi:namedview
     id="namedview42"
     pagecolor="#ffffff"
     bordercolor="#666666"
     borderopacity="1.0"
     inkscape:pageshadow="2"
     inkscape:pageopacity="0.0"
     inkscape:pagecheckerboard="0"
     inkscape:document-units="pt"
     showgrid="false"
     fit-margin-top="0"
     fit-margin-left="0"
     fit-margin-right="0"
     fit-margin-bottom="0"
     inkscape:zoom="2.2069"
     inkscape:cx="138.8826"
     inkscape:cy="144.99978"
     inkscape:window-width="1828"
     inkscape:window-height="888"
     inkscape:window-x="1956"
     inkscape:window-y="410"
     inkscape:window-maximized="0"
     inkscape:current-layer="g38" />
  <g
     fill="#c362dd"
     id="g38"
     transform="matrix(0.214422,0,0,0.214422,20.844408,22.271997)">
    <g
       id="g3412"
       transform="matrix(0.8756247,0,0,0.8756247,-194.93636,-202.86136)">
      <path
         d="m 504.55,350.25 c -1.4062,-6.707 -2.9844,-12.719 -5.5508,-19.617 l -11.19568,3.98969 c 2.4336,6.5195 3.3967,11.14901 4.756,17.61401 z"
         id="path1752"
         style="stroke-width:2.86351;stroke-miterlimit:4;stroke-dasharray:none"
         sodipodi:nodetypes="ccccc" />
      <path
         d="m 376,394.6 c -10.254,0 -18.598,-8.3398 -18.598,-18.598 0,-5.4102 2.3477,-10.539 6.4453,-14.078 l -4.5781,-5.3047 c -5.6445,4.875 -8.8789,11.938 -8.8789,19.383 0,14.117 11.484,25.605 25.605,25.605 14.121,0 25.605,-11.488 25.605,-25.605 0,-14.117 -11.477,-25.605 -25.602,-25.605 v 7.0078 c 10.254,0 18.598,8.3398 18.598,18.598 0,10.2582 -8.3438,18.598 -18.598,18.598 z"
         id="path1755"
         style="stroke-width:2.86351;stroke-miterlimit:4;stroke-dasharray:none" />
      <path
         d="m 307.56,307.56 c -10.375,10.375 -16.484,30.789 -4,61.152 l 6.4844,-2.668 c -7.1875,-17.492 -8.39125,-37.6714 4.82345,-50.8824 13.238,-13.238 33.72725,-12.2969 51.18825,-5.1212 l 2.6602,-6.4844 c -25.238,-10.367 -48.254,-8.8906 -61.156,4.0039 z"
         id="path1758"
         style="stroke-width:2.86351;stroke-miterlimit:4;stroke-dasharray:none"
         sodipodi:nodetypes="cccccccc" />
      <path
         d="m 444.44,307.56 c -12.891,-12.895 -35.918,-14.379 -61.152,-4 l 2.6602,6.4844 c 17.422,-7.1602 37.6524,-9.00294 50.8944,4.23966 13.805,13.809 11.9727,36.15494 4.1251,54.00294 -12.805,-22.125 -32.996,-42.742 -55.133,-56.012 l -5.65169,10.12359 c 22.051,13.215 35.08252,29.98751 47.28952,53.09351 -13.16,24.891 -26.91656,42.09776 -51.83856,55.26976 -23.105,-12.207 -40.53348,-28.01975 -53.75248,-50.07375 l -9.60229,5.14599 c 12.836,21.414 33.184,41.922 56.012,55.133 -17.98,7.9102 -37.02466,9.02972 -50.77066,-4.72058 -10.898,-10.898 -16.80034,-27.69772 -7.44064,-50.36172 l -6.4727,-2.6758 c -10.484,25.371 -9.0039,48.262 3.9648,61.23 17.238,17.234 46.402,11.535 68.438,0.65234 21.863,10.785 51.273,16.516 68.438,-0.65234 17.215,-17.215 11.566,-46.336 0.65234,-68.434 10.895,-22.094 16.555,-51.23 -0.66016,-68.445 z m -7.01001,129.86309 c -11.355,11.355 -30.29509,13.83391 -53.70909,3.53741 22.969,-13.293 43.934,-34.258 57.246,-57.246 7.8438,17.84 10.26759,39.89959 -3.53691,53.70859 z"
         id="path1761"
         style="stroke-width:2.86351;stroke-miterlimit:4;stroke-dasharray:none"
         sodipodi:nodetypes="sccccccccccccccccccsscccc" />
      <path
         d="m 312.28,366.13 9.60149,14.55811 c 12.332,-20.469 19.47185,-37.52854 58.30152,-58.28952 L 366.1742,312.2786 c -21.086,12.633 -40.918,32.324 -53.895,53.852 z"
         id="path1764"
         style="stroke-width:2.86351;stroke-miterlimit:4;stroke-dasharray:none"
         sodipodi:nodetypes="cccccc" />
      <path
         d="m 226,376.06 v -7.0078 h -39.469 v -31.258 c 7.8555,-1.625 13.781,-8.5938 13.781,-16.93 0,-9.5312 -7.7578,-17.285 -17.285,-17.285 -9.5312,0 -17.289,7.7578 -17.289,17.285 0,8.332 5.9258,15.305 13.785,16.93 v 38.266 z m -53.254,-55.195 c 0,-5.668 4.6133,-10.277 10.281,-10.277 5.668,0 10.277,4.6133 10.277,10.277 0,5.668 -4.6094,10.281 -10.277,10.281 -5.6719,0 -10.281,-4.6133 -10.281,-10.281 z"
         id="path1767"
         style="stroke-width:2.86351;stroke-miterlimit:4;stroke-dasharray:none" />
      <path
         d="m 379.51,552.05 v -26.008 h -7.0078 v 26.008 c -7.8633,1.625 -13.785,8.6016 -13.785,16.93 0,9.5312 7.7578,17.285 17.289,17.285 9.5312,0 17.289,-7.7578 17.289,-17.285 0,-8.332 -5.9258,-15.305 -13.785,-16.93 z m -3.5078,27.207 c -5.668,0 -10.281,-4.6133 -10.281,-10.277 0,-5.668 4.6133,-10.281 10.281,-10.281 5.6677,0 10.281,4.6133 10.281,10.281 0,5.6641 -4.6094,10.277 -10.281,10.277 z"
         id="path1770"
         style="stroke-width:2.86351;stroke-miterlimit:4;stroke-dasharray:none" />
      <path
         d="m 217.42,237.86 v 36.215 l 27.355,27.355 4.9531,-4.9531 -25.305,-25.305 v -33.312 c 7.8633,-1.625 13.785,-8.5938 13.785,-16.93 0,-9.5312 -7.7578,-17.285 -17.289,-17.285 -9.5312,0 -17.289,7.7578 -17.289,17.285 0.004,8.3281 5.9297,15.305 13.789,16.93 z m 3.5039,-27.207 c 5.668,0 10.281,4.6133 10.281,10.277 0,5.668 -4.6133,10.277 -10.281,10.277 -5.6677,0 -10.281,-4.6133 -10.281,-10.277 0,-5.6719 4.6133,-10.277 10.281,-10.277 z"
         id="path1773"
         style="stroke-width:2.86351;stroke-miterlimit:4;stroke-dasharray:none" />
      <path
         d="m 495.66,286.44 8.04893,6.50844 28.21317,-28.75635 c 6.7266,4.4219 15.84,-0.44779 21.723,-6.33069 6.7617,-6.7617 6.7578,-17.691 0,-24.449 -6.7422,-6.7383 -17.707,-6.75 -24.449,0 -5.9805,5.9805 -6.5938,15.082 -2.2227,21.707 z m 38.488,-48.066 c 4.0117,-4.0117 10.527,-4.0078 14.539,0 3.9883,3.9922 4.0508,10.484 0,14.539 -4.0117,4.0078 -10.527,4.0078 -14.539,0 -3.9883,-4 -4.043,-10.492 0,-14.539 z"
         id="path1776"
         style="stroke-width:2.86351;stroke-miterlimit:4;stroke-dasharray:none"
         sodipodi:nodetypes="cccsccccccccc" />
      <path
         d="m 572.48,414.21 v -38.266 h -46.477 v 7.0078 h 39.469 v 31.258 c -7.8555,1.625 -13.781,8.5938 -13.781,16.93 0,9.5312 7.7578,17.285 17.285,17.285 9.5312,0 17.289,-7.7578 17.289,-17.285 0,-8.3359 -5.9219,-15.305 -13.785,-16.93 z m -3.5039,27.207 c -5.668,0 -10.277,-4.6133 -10.277,-10.277 0,-5.668 4.6094,-10.281 10.277,-10.281 5.6676,0 10.281,4.6133 10.281,10.281 0,5.6641 -4.6133,10.277 -10.281,10.277 z"
         id="path1779"
         style="stroke-width:2.86351;stroke-miterlimit:4;stroke-dasharray:none" />
      <path
         d="m 256.11,465.29 -4.9531,-4.9531 -31.066,31.066 c -6.707,-4.4141 -15.828,-3.6758 -21.723,2.2227 -6.7422,6.7383 -6.7422,17.707 0,24.449 6.7422,6.7422 17.707,6.7422 24.449,0 5.8906,-5.8906 6.6289,-15.008 2.2266,-21.715 z m -38.25,47.828 c -4.0117,4.0078 -10.527,4.0078 -14.539,0 -4.0078,-4.0078 -4.0078,-10.531 0,-14.539 4.0117,-4.0117 10.527,-4.0078 14.539,0 4.0039,4.0078 4.0039,10.531 0,14.539 z"
         id="path1782"
         style="stroke-width:2.86351;stroke-miterlimit:4;stroke-dasharray:none" />
      <path
         d="m 372.5,199.95 v 26.008 h 7.0078 V 199.95 c 7.8633,-1.625 13.785,-8.6016 13.785,-16.93 0,-9.5312 -7.7578,-17.285 -17.289,-17.285 -9.5312,0 -17.289,7.7578 -17.289,17.285 0,8.332 5.9258,15.305 13.785,16.93 z m 3.5039,-27.207 c 5.668,0 10.281,4.6133 10.281,10.277 0,5.668 -4.6133,10.281 -10.281,10.281 -5.6677,0 -10.281,-4.6133 -10.281,-10.281 0,-5.6677 4.6133,-10.277 10.281,-10.277 z"
         id="path1785"
         style="stroke-width:2.86351;stroke-miterlimit:4;stroke-dasharray:none" />
      <path
         d="m 534.58,514.14 v -36.215 l -27.355,-27.355 -4.9531,4.9531 25.305,25.305 v 33.312 c -7.8633,1.625 -13.785,8.5938 -13.785,16.93 0,9.5312 7.7578,17.285 17.289,17.285 9.5312,0 17.289,-7.7578 17.289,-17.285 0,-8.3281 -5.9258,-15.305 -13.789,-16.93 z m -3.5039,27.207 c -5.668,0 -10.281,-4.6133 -10.281,-10.277 0,-5.668 4.6133,-10.281 10.281,-10.281 5.6677,0 10.281,4.6133 10.281,10.281 0,5.6719 -4.6094,10.277 -10.281,10.277 z"
         id="path1788"
         style="stroke-width:2.86351;stroke-miterlimit:4;stroke-dasharray:none" />
      <path
         d="m 452.98,248.25 33.547,-33.547 c 6.7188,4.418 15.832,3.6562 21.715,-2.2266 6.7422,-6.7383 6.7422,-17.707 0,-24.449 -6.7422,-6.7422 -17.707,-6.7422 -24.449,0 -5.8945,5.8906 -6.6367,15.016 -2.2227,21.723 l -33.547,33.547 z m 35.777,-55.273 c 4.0117,-4.0117 10.527,-4.0078 14.539,0 4.0078,4.0078 4.0078,10.531 0,14.539 -4.0117,4.0078 -10.527,4.0078 -14.539,0 -4.0117,-4.0039 -4.0117,-10.531 0,-14.539 z"
         id="path2188"
         style="stroke-width:2.86351;stroke-miterlimit:4;stroke-dasharray:none" />
      <path
         d="m 299.33,503.96 -33.344,33.34 c -6.707,-4.4062 -15.824,-3.6641 -21.715,2.2266 -6.7422,6.7383 -6.7422,17.707 0,24.449 6.7422,6.7422 17.707,6.7422 24.449,0 5.8945,-5.8906 6.6367,-15.016 2.2227,-21.723 l 33.34,-33.34 z m -35.562,55.066 c -4.0117,4.0078 -10.527,4.0078 -14.539,0 -4.0078,-4.0078 -4.0078,-10.531 0,-14.539 4.0117,-4.0117 10.527,-4.0078 14.539,0 4.0078,4.0039 4.0078,10.531 0,14.539 z"
         id="path1794"
         style="stroke-width:2.86351;stroke-miterlimit:4;stroke-dasharray:none" />
      <path
         d="m 272.56,203.39 v 18.98 l 26.082,26.082 4.9531,-4.9531 -24.023,-24.023 v -16.078 c 7.8633,-1.625 13.785,-8.6016 13.785,-16.93 0,-9.5312 -7.7578,-17.285 -17.289,-17.285 -9.5312,0 -17.289,7.7578 -17.289,17.285 -0.004,8.3281 5.918,15.297 13.781,16.922 z m 3.5039,-27.207 c 5.668,0 10.281,4.6133 10.281,10.277 0,5.668 -4.6133,10.281 -10.281,10.281 -5.668,0 -10.281,-4.6133 -10.281,-10.281 0,-5.668 4.6133,-10.277 10.281,-10.277 z"
         id="path1797"
         style="stroke-width:2.86351;stroke-miterlimit:4;stroke-dasharray:none" />
      <path
         d="m 479.44,548.61 v -18.98 l -26.082,-26.082 -4.9531,4.9531 24.023,24.023 v 16.078 c -7.8633,1.625 -13.785,8.6016 -13.785,16.93 0,9.5312 7.7578,17.285 17.289,17.285 9.5312,0 17.289,-7.7578 17.289,-17.285 0.004,-8.3281 -5.9219,-15.301 -13.781,-16.922 z m -3.5039,27.207 c -5.668,0 -10.281,-4.6133 -10.281,-10.277 0,-5.668 4.6133,-10.281 10.281,-10.281 5.6677,0 10.281,4.6133 10.281,10.281 0,5.668 -4.6133,10.277 -10.281,10.277 z"
         id="path1800"
         style="stroke-width:2.86351;stroke-miterlimit:4;stroke-dasharray:none" />
      <path
         d="m 376,507.08 c 72.75,0 131.08,-57.91 131.08,-131.08 h -13.16978 c 0,68.859 -48.64302,116.36753 -117.90802,116.36753 -68.973,0 -114.82703,-47.65903 -114.82703,-115.85403 0,-69.062 45.76503,-118.93502 114.82703,-118.93502 43.828,0 79.04252,19.80601 101.41852,56.57501 l 10.61368,-6.21589 c -23.891,-39.172 -66.09,-63.016 -112.04,-63.016 -72.75,0 -131.08,57.91 -131.08,131.08 0,72.371 58.582,131.08 131.08,131.08 z"
         id="path1803"
         style="stroke-width:2.86351;stroke-miterlimit:4;stroke-dasharray:none"
         sodipodi:nodetypes="cccsssccsscc" />
    </g>
  </g>
</svg>
