<?xml version="1.0" encoding="UTF-8" standalone="no"?>
<!-- Created with Inkscape (http://www.inkscape.org/) -->

<svg
   version="1.1"
   id="svg73"
   xml:space="preserve"
   width="1640"
   height="400"
   viewBox="0 0 1640 400"
   sodipodi:docname="logo.svg"
   inkscape:version="1.1.1 (c3084ef, 2021-09-22)"
   xmlns:inkscape="http://www.inkscape.org/namespaces/inkscape"
   xmlns:sodipodi="http://sodipodi.sourceforge.net/DTD/sodipodi-0.dtd"
   xmlns="http://www.w3.org/2000/svg"
   xmlns:svg="http://www.w3.org/2000/svg"><defs
     id="defs77"><clipPath
       clipPathUnits="userSpaceOnUse"
       id="clipPath89"><path
         d="M 0,0 H 1230 V 300 H 0 Z"
         id="path87" /></clipPath><clipPath
       clipPathUnits="userSpaceOnUse"
       id="clipPath103"><path
         d="m 381.3615,250.7387 h -62.361 l -29.151,-92.619 -10.701,40.959 c -9.963,37.269 -23.616,56.088 -42.066,56.088 -11.808,0 -21.033,-6.273 -27.306,-18.45 -5.904,-11.439 -8.856,-25.461 -8.856,-42.435 h 9.225 c 2.583,18.45 9.963,27.675 21.771,27.675 13.284,0 24.354,-11.808 33.948,-35.424 5.904,-14.76 9.963,-35.424 12.546,-62.361 -15.129,-35.05498 -22.509,-61.62298 -22.509,-79.70398 0,-12.177 1.107,-21.402 3.69,-26.937 3.69,-8.487005 11.439,-12.546005 22.509,-12.546005 9.594,0 16.974,4.428 22.509,12.546005 5.535,8.487 8.487,18.819 8.487,32.103 0,8.487 -1.107,21.033 -3.69,37.638 -1.107,7.38 -2.214,12.546 -2.583,15.86698 z m 56.908,-172.69198 c 22.099,0 35.588,7.462 46.781,21.525 v -18.942 h 23.821 v 99.01498 c 0,41.902 -26.117,53.669 -54.817,53.669 -28.987,0 -56.252,-12.628 -59.409,-46.781 h 23.821 c 2.296,18.368 13.776,26.978 34.44,26.978 22.96,0 32.144,-10.045 32.144,-33.866 v -10.906 h -21.525 c -38.458,0 -75.194,-11.767 -75.194,-46.494 0,-30.70898 22.099,-44.19798 49.938,-44.19798 z m 2.296,18.942 c -20.951,0 -28.413,9.75798 -28.413,25.25598 0,22.099 22.099,29.561 52.234,29.561 h 20.664 v -18.655 c 0,-23.247 -19.229,-36.16198 -44.485,-36.16198 z m 144.074,-18.942 c 22.099,0 35.588,7.462 46.781,21.525 v -18.942 h 23.821 v 99.01498 c 0,41.902 -26.117,53.669 -54.817,53.669 -28.987,0 -56.252,-12.628 -59.409,-46.781 h 23.821 c 2.296,18.368 13.776,26.978 34.44,26.978 22.96,0 32.144,-10.045 32.144,-33.866 v -10.906 h -21.525 c -38.458,0 -75.194,-11.767 -75.194,-46.494 0,-30.70898 22.099,-44.19798 49.938,-44.19798 z m 2.296,18.942 c -20.951,0 -28.413,9.75798 -28.413,25.25598 0,22.099 22.099,29.561 52.234,29.561 h 20.664 v -18.655 c 0,-23.247 -19.229,-36.16198 -44.485,-36.16198 z m 107.051,-16.359 h 23.821 V 230.7307 h -23.821 z m 11.48,181.38398 c 8.61,0 15.785,7.175 15.785,15.785 0,8.61 -7.175,15.785 -15.785,15.785 -8.61,0 -15.785,-7.175 -15.785,-15.785 0,-8.61 7.175,-15.785 15.785,-15.785 z m 99.015,-183.96698 c 36.449,0 55.104,18.368 55.104,45.63298 0,31.857 -21.812,38.745 -52.808,44.485 -27.552,4.879 -35.014,10.332 -35.014,23.821 0,12.915 11.193,21.525 28.413,21.525 18.942,0 28.126,-7.175 31.57,-23.534 h 22.96 c -4.018,32.431 -27.265,43.337 -54.243,43.337 -23.534,0 -50.799,-14.35 -50.799,-42.189 0,-26.117 13.202,-37.023 52.234,-44.198 23.247,-4.305 35.014,-9.471 35.014,-25.256 0,-16.072 -10.045,-23.82098 -32.718,-23.82098 -24.108,0 -33.579,11.19298 -35.301,28.98698 h -23.247 c 1.435,-30.70898 22.96,-48.78998 58.835,-48.78998 z m 133.455,0 c 24.108,0 40.754,12.341 47.642,26.40398 V 80.62972 H 1009.4 V 230.7307 h -23.8215 v -90.979 c 0,-26.978 -20.09,-41.04098 -41.328,-41.04098 -23.534,0 -34.727,11.76698 -34.727,38.17098 v 93.849 h -23.821 v -94.997 c 0,-41.32798 22.386,-57.68698 52.234,-57.68698 z"
         id="path101" /></clipPath><clipPath
       clipPathUnits="userSpaceOnUse"
       id="clipPath109"><path
         d="m 381.3615,250.7387 h -62.361 l -29.151,-92.619 -10.701,40.959 c -9.963,37.269 -23.616,56.088 -42.066,56.088 -11.808,0 -21.033,-6.273 -27.306,-18.45 -5.904,-11.439 -8.856,-25.461 -8.856,-42.435 h 9.225 c 2.583,18.45 9.963,27.675 21.771,27.675 13.284,0 24.354,-11.808 33.948,-35.424 5.904,-14.76 9.963,-35.424 12.546,-62.361 -15.129,-35.05498 -22.509,-61.62298 -22.509,-79.70398 0,-12.177 1.107,-21.402 3.69,-26.937 3.69,-8.487005 11.439,-12.546005 22.509,-12.546005 9.594,0 16.974,4.428 22.509,12.546005 5.535,8.487 8.487,18.819 8.487,32.103 0,8.487 -1.107,21.033 -3.69,37.638 -1.107,7.38 -2.214,12.546 -2.583,15.86698 z m 56.908,-172.69198 c 22.099,0 35.588,7.462 46.781,21.525 v -18.942 h 23.821 v 99.01498 c 0,41.902 -26.117,53.669 -54.817,53.669 -28.987,0 -56.252,-12.628 -59.409,-46.781 h 23.821 c 2.296,18.368 13.776,26.978 34.44,26.978 22.96,0 32.144,-10.045 32.144,-33.866 v -10.906 h -21.525 c -38.458,0 -75.194,-11.767 -75.194,-46.494 0,-30.70898 22.099,-44.19798 49.938,-44.19798 z m 2.296,18.942 c -20.951,0 -28.413,9.75798 -28.413,25.25598 0,22.099 22.099,29.561 52.234,29.561 h 20.664 v -18.655 c 0,-23.247 -19.229,-36.16198 -44.485,-36.16198 z m 144.074,-18.942 c 22.099,0 35.588,7.462 46.781,21.525 v -18.942 h 23.821 v 99.01498 c 0,41.902 -26.117,53.669 -54.817,53.669 -28.987,0 -56.252,-12.628 -59.409,-46.781 h 23.821 c 2.296,18.368 13.776,26.978 34.44,26.978 22.96,0 32.144,-10.045 32.144,-33.866 v -10.906 h -21.525 c -38.458,0 -75.194,-11.767 -75.194,-46.494 0,-30.70898 22.099,-44.19798 49.938,-44.19798 z m 2.296,18.942 c -20.951,0 -28.413,9.75798 -28.413,25.25598 0,22.099 22.099,29.561 52.234,29.561 h 20.664 v -18.655 c 0,-23.247 -19.229,-36.16198 -44.485,-36.16198 z m 107.051,-16.359 h 23.821 V 230.7307 h -23.821 z m 11.48,181.38398 c 8.61,0 15.785,7.175 15.785,15.785 0,8.61 -7.175,15.785 -15.785,15.785 -8.61,0 -15.785,-7.175 -15.785,-15.785 0,-8.61 7.175,-15.785 15.785,-15.785 z m 99.015,-183.96698 c 36.449,0 55.104,18.368 55.104,45.63298 0,31.857 -21.812,38.745 -52.808,44.485 -27.552,4.879 -35.014,10.332 -35.014,23.821 0,12.915 11.193,21.525 28.413,21.525 18.942,0 28.126,-7.175 31.57,-23.534 h 22.96 c -4.018,32.431 -27.265,43.337 -54.243,43.337 -23.534,0 -50.799,-14.35 -50.799,-42.189 0,-26.117 13.202,-37.023 52.234,-44.198 23.247,-4.305 35.014,-9.471 35.014,-25.256 0,-16.072 -10.045,-23.82098 -32.718,-23.82098 -24.108,0 -33.579,11.19298 -35.301,28.98698 h -23.247 c 1.435,-30.70898 22.96,-48.78998 58.835,-48.78998 z m 133.455,0 c 24.108,0 40.754,12.341 47.642,26.40398 V 80.62972 H 1009.4 V 230.7307 h -23.8215 v -90.979 c 0,-26.978 -20.09,-41.04098 -41.328,-41.04098 -23.534,0 -34.727,11.76698 -34.727,38.17098 v 93.849 h -23.821 v -94.997 c 0,-41.32798 22.386,-57.68698 52.234,-57.68698 z"
         id="path107" /></clipPath><linearGradient
       x1="0"
       y1="0"
       x2="100"
       y2="0"
       gradientUnits="userSpaceOnUse"
       gradientTransform="matrix(2.433185,-5.465024,-7.871651,-3.504685,483.6442,422.3509)"
       spreadMethod="pad"
       id="linearGradient123"><stop
         style="stop-opacity:1;stop-color:#1e98fd"
         offset="0"
         id="stop119" /><stop
         style="stop-opacity:1;stop-color:#ff00f7"
         offset="1"
         id="stop121" /></linearGradient></defs><sodipodi:namedview
     id="namedview75"
     pagecolor="#ffffff"
     bordercolor="#666666"
     borderopacity="1.0"
     inkscape:pageshadow="2"
     inkscape:pageopacity="0.0"
     inkscape:pagecheckerboard="0"
     showgrid="false"
     inkscape:zoom="0.31280488"
     inkscape:cx="820"
     inkscape:cy="199.80507"
     inkscape:window-width="1280"
     inkscape:window-height="755"
     inkscape:window-x="2151"
     inkscape:window-y="413"
     inkscape:window-maximized="0"
     inkscape:current-layer="g79" /><g
     id="g79"
     inkscape:groupmode="layer"
     inkscape:label="logo"
     transform="matrix(1.3333333,0,0,-1.3333333,0,400)"><g
       id="g81" /><g
       id="g83"><g
         id="g85"
         clip-path="url(#clipPath89)"><path
           d="M 0,300 H 1230 V 0 H 0 Z"
           style="fill:#ffffff;fill-opacity:1;fill-rule:nonzero;stroke:none"
           id="path91" /><g
           id="g93"
           transform="translate(196.4925,80.62972)" /><g
           id="g95"
           transform="translate(196.4925,80.62972)" /></g></g><g
       id="g97"><g
         id="g99"
         clip-path="url(#clipPath103)"><g
           id="g105"
           clip-path="url(#clipPath109)"><g
             id="g111"><g
               id="g117"><path
                 d="M 0,0 H 1230 V 300 H 0 Z"
                 style="fill:url(#linearGradient123);stroke:none"
                 id="path125" /></g></g></g></g></g></g></svg>
